<svg xmlns="http://www.w3.org/2000/svg" viewBox="0 0 1320 1080" role="img" aria-labelledby="title desc">
<title id="title">JSP and Montelanza: separate authority and property trails</title><desc id="desc">Documented appointments are solid. Alleged majority control, the Community-to-CAM title chain, and the connection to JSP's later estate are dashed and unproved. Montelanza's 2015 to 2018 voluntary liquidation precedes JSP's 2021 insolvency. Hotel association does not establish ownership or opening order.</desc>
<defs><marker id="arrow" viewBox="0 0 10 10" refX="9" refY="5" markerWidth="7" markerHeight="7" orient="auto-start-reverse"><path d="M0 0L10 5L0 10z" fill="#334c64"/></marker><style>text{font-family:Arial,sans-serif;fill:#172b40}.title{font-size:30px;font-weight:bold}.h{font-size:20px;font-weight:bold}.t{font-size:17px}.s{font-size:15px}.box{fill:#fff;stroke:#46657f;stroke-width:2}.gap{fill:#fff8e8;stroke:#98752d;stroke-width:2;stroke-dasharray:8 5}.solid{fill:none;stroke:#334c64;stroke-width:2.5;marker-end:url(#arrow)}.query{fill:none;stroke:#98752d;stroke-width:2.5;stroke-dasharray:8 6;marker-end:url(#arrow)}</style></defs>
<rect width="1320" height="1080" fill="#f1f5f8"/><text x="40" y="48" class="title">JSP · MONTELANZA · SUN PARK</text><text x="40" y="79" class="t">Authority, property and estate-value questions · 5 September 2026</text>
<path class="solid" d="M42 105H100"/><text x="112" y="111" class="s">Documented appointment / act</text><path class="query" d="M450 105H510"/><text x="525" y="111" class="s">Unverified relationship / production question</text>
<rect x="40" y="140" width="550" height="124" rx="12" class="box"/><text x="60" y="171" class="h">MONTE LANZA S.L. · GC1339</text><text x="60" y="200" class="t">Voluntary liquidation: registered 20 Oct 2015</text><text x="60" y="227" class="t">Extinction: registered 9 Oct 2018</text><text x="60" y="252" class="s">Montelanza B35279850 ↔ GC1339 certificate still needed</text>
<rect x="730" y="140" width="550" height="124" rx="12" class="box"/><text x="750" y="171" class="h">JOSÉ SÁNCHEZ PEÑATE S.A. · GC3655</text><text x="750" y="200" class="t">Concurso 440/2021 · order 21 Jul 2021</text><text x="750" y="227" class="t">Historical court: Mercantil nº 2, Las Palmas</text><text x="750" y="252" class="s">JSP group / JSP S.L. / JSP S.A. are not interchangeable</text>
<path class="query" d="M730 185H590"/><rect x="595" y="193" width="132" height="73" fill="#f1f5f8"/><text x="603" y="209" class="s">Majority/control</text><text x="603" y="229" class="s">alleged;</text><text x="603" y="249" class="s">% NOT proved</text>
<rect x="40" y="310" width="550" height="108" rx="12" class="box"/><text x="60" y="341" class="h">Atilio Rodríguez Beltrá</text><text x="60" y="371" class="t">Formal liquidator named in 2015 BORME</text><text x="60" y="398" class="s">Exact acts, mandate, accounts and custody to recover</text><path class="solid" d="M315 310V266"/>
<rect x="730" y="310" width="550" height="108" rx="12" class="box"/><text x="750" y="341" class="h">Praxis de Reestructuraciones y Concursal S.L.P.</text><text x="750" y="371" class="t">Appointed insolvency administrator, 21 Jul 2021</text><text x="750" y="398" class="s">Natural representative / current appointment to verify</text><path class="solid" d="M1005 264V310"/>
<rect x="730" y="446" width="550" height="92" rx="12" class="box"/><text x="750" y="477" class="h">Miota &amp; Alonso Asociados S.L.P.</text><text x="750" y="506" class="t">Delegated auxiliary named in the 2021 notice</text><text x="750" y="529" class="s">Delegation scope is not unlimited disposition authority</text><path class="solid" d="M1005 418V446"/>
<rect x="40" y="456" width="550" height="103" rx="12" class="gap"/><text x="60" y="486" class="h">2016 instrument / title reconstruction</text><text x="60" y="515" class="t">Fincas 8498, 8499, 8500 · protocol 2026</text><text x="60" y="543" class="s">18 Nov 2016 lead: obtain deed, conditions and acceptance</text><path class="query" d="M315 418V456"/>
<rect x="40" y="604" width="255" height="100" rx="12" class="gap"/><text x="57" y="634" class="h">Owners' Community?</text><text x="57" y="662" class="s">Which right actually vested?</text><text x="57" y="684" class="s">Which officer / resolution?</text><path class="query" d="M165 559V604"/>
<rect x="345" y="604" width="245" height="100" rx="12" class="gap"/><text x="360" y="634" class="h">Acosta Matos / CAM?</text><text x="360" y="662" class="s">Exact buyer, deed, payment,</text><text x="360" y="684" class="s">authority and registration</text><path class="query" d="M295 654H345"/>
<rect x="730" y="594" width="550" height="110" rx="12" class="gap"/><text x="750" y="625" class="h">JSP inventory and liquidation reconciliation</text><text x="750" y="654" class="t">Property? Shares? Proceeds? Receivables? Claims?</text><text x="750" y="681" class="s">2022 opening reported; final conclusion/extinction unverified</text><path class="query" d="M1005 538V594"/>
<path class="query" d="M590 530H656V654H730"/><text x="610" y="574" class="s">Estate</text><text x="610" y="594" class="s">connection</text><text x="610" y="614" class="s">to prove</text>
<rect x="40" y="748" width="1240" height="115" rx="12" class="box"/><text x="60" y="781" class="h">Five Sun hotels: reported historical association, NOT a proved ownership structure</text><text x="60" y="816" class="t">Sun Park · Sun Royal · Sun Beach · Sun Island · Sun Tropical</text><text x="60" y="846" class="s">Sun Park-first remains Patricia's account pending opening records. The 2022 history also reports earlier JSP divestment.</text>
<rect x="40" y="895" width="1240" height="143" rx="12" fill="#e3ebf2"/><text x="60" y="925" class="h">Three essential distinctions</text><text x="60" y="956" class="t">Shareholder ≠ owner of the company's land. Formal appointee ≠ proven shadow controller.</text><text x="60" y="987" class="t">2015–2018 transactions ≠ acts by administrators appointed in 2021. LPB concurso 36/2012 is separate.</text><text x="60" y="1018" class="s">Sources: BORME 2015-205-35 / 2018-201-35 / 2021-205-35; existing title-research leads; Tourinews 6 May 2022.</text>
</svg>
